<svg width="325" height="253" viewBox="0 0 325 253" fill="none" xmlns="http://www.w3.org/2000/svg">
<path d="M10.66 217.35C10.38 217.35 10.24 217.53 10.24 217.87V218.8C10.24 219.14 10.38 219.3 10.66 219.3H11.61C12.56 219.3 13.42 219.62 14.15 220.31C14.84 220.98 15.16 221.82 15.16 222.77C15.16 224.24 14.54 225.29 13.31 225.91C12.85 226.13 12.4 226.23 11.94 226.23H2.88C0.97 225.9 0 224.75 0 222.77V219.3H3.04V222.77C3.04 223.11 3.22 223.27 3.56 223.27H11.68C11.96 223.21 12.1 223.05 12.1 222.77C12.1 222.43 11.94 222.27 11.6 222.27H10.33C8.23 222.27 7.19 220.94 7.19 218.8V217.87C7.19 216.9 7.53 216.1 8.22 215.41C8.91 214.72 9.71 214.38 10.66 214.38H13.04V217.34H10.66V217.35ZM7.44 229.89C7.44 230.96 6.92 231.48 5.91 231.48C4.84 231.48 4.32 230.96 4.32 229.89C4.32 228.88 4.84 228.36 5.91 228.36C6.91 228.35 7.44 228.88 7.44 229.89ZM11.29 229.89C11.29 230.96 10.77 231.48 9.76 231.48C8.69 231.48 8.17 230.96 8.17 229.89C8.17 228.88 8.69 228.36 9.76 228.36C10.76 228.35 11.29 228.88 11.29 229.89Z" fill="white"/>
<path d="M22.11 226.74C22.11 227.71 21.77 228.51 21.08 229.2C20.39 229.89 19.59 230.23 18.62 230.23H16.77V227.17H18.62C18.9 227.17 19.04 227.03 19.04 226.75V216.5H22.1V226.74H22.11Z" fill="white"/>
<path d="M26.69 222.77C26.69 223.11 26.85 223.27 27.19 223.27H31V226.23H27.19C26.24 226.23 25.42 225.91 24.73 225.22C24.04 224.53 23.72 223.71 23.72 222.76V211.5H26.68V222.77H26.69Z" fill="white"/>
<path d="M37.31 216.5C38.26 216.5 39.08 216.82 39.77 217.51C40.46 218.19 40.78 219.02 40.78 219.97V223.28H43.9V226.24H30.19V223.28H33.31V219.97C33.31 219.02 33.65 218.2 34.34 217.51C35.01 216.84 35.83 216.5 36.8 216.5H37.31ZM36.77 213.03C36.77 214.1 36.25 214.62 35.24 214.62C34.17 214.62 33.65 214.1 33.65 213.03C33.65 212.02 34.17 211.5 35.24 211.5C36.24 211.5 36.77 212.03 36.77 213.03ZM36.81 219.55C36.53 219.55 36.39 219.69 36.39 219.97V222.77C36.39 223.11 36.53 223.27 36.81 223.27H37.31C37.65 223.27 37.81 223.11 37.81 222.77V219.97C37.81 219.69 37.65 219.55 37.31 219.55H36.81ZM40.62 213.03C40.62 214.1 40.1 214.62 39.09 214.62C38.02 214.62 37.5 214.1 37.5 213.03C37.5 212.02 38.02 211.5 39.09 211.5C40.09 211.5 40.62 212.03 40.62 213.03Z" fill="white"/>
<path d="M49.79 219.55C49.45 219.55 49.29 219.71 49.29 220.05V222.77C49.29 222.99 49.39 223.15 49.61 223.27H56.14V226.23H43.09V223.27H46.32C46.26 223.09 46.22 222.93 46.22 222.77V220.05C46.22 219.1 46.54 218.26 47.25 217.59C47.96 216.9 48.82 216.58 49.79 216.58H53V219.54H49.79V219.55Z" fill="white"/>
<path d="M61.42 222.69C61.42 223.7 61.06 224.54 60.33 225.23C59.64 225.9 58.82 226.24 57.87 226.24H55.33V223.28H57.87C58.21 223.28 58.37 223.12 58.37 222.78V211.5H61.41V222.69H61.42Z" fill="white"/>
<path d="M63.03 226.24V211.5H66.07V226.23H63.03V226.24Z" fill="white"/>
<path d="M80.71 223.27V226.23H77.59V226.73C77.59 227.7 77.25 228.5 76.56 229.19C75.87 229.88 75.07 230.22 74.1 230.22H72.25V227.16H74.1C74.38 227.16 74.52 227.02 74.52 226.74V216.5H77.58V223.27H80.71Z" fill="white"/>
<path d="M88.57 222.77C88.57 223.72 88.23 224.54 87.54 225.23C86.87 225.9 86.03 226.24 85 226.24H79.9V223.28H85C85.34 223.28 85.5 223.14 85.5 222.86V216.51H88.56V222.77H88.57ZM84.25 229.89C84.25 230.96 83.73 231.48 82.72 231.48C81.65 231.48 81.13 230.96 81.13 229.89C81.13 228.88 81.65 228.36 82.72 228.36C83.73 228.35 84.25 228.88 84.25 229.89ZM88.1 229.89C88.1 230.96 87.58 231.48 86.57 231.48C85.5 231.48 84.98 230.96 84.98 229.89C84.98 228.88 85.5 228.36 86.57 228.36C87.58 228.35 88.1 228.88 88.1 229.89Z" fill="white"/>
<path d="M95.84 216.5C96.81 216.5 97.63 216.84 98.3 217.51C98.99 218.19 99.33 219.02 99.33 219.97V223.28H102.45V226.24H99.33V226.82C99.33 227.79 98.99 228.59 98.3 229.28C97.61 229.97 96.81 230.31 95.84 230.31H91.87V227.25H95.84C96.12 227.25 96.26 227.11 96.26 226.83V226.25H93.64C92.69 226.25 91.87 225.93 91.18 225.24C90.49 224.55 90.17 223.71 90.17 222.7V219.98C90.17 219.03 90.49 218.21 91.18 217.52C91.86 216.83 92.69 216.51 93.64 216.51H95.84V216.5ZM93.65 219.47C93.31 219.47 93.15 219.63 93.15 219.97V222.77C93.15 223.11 93.31 223.27 93.65 223.27H96.27V219.96C96.27 219.62 96.13 219.46 95.85 219.46H93.65V219.47Z" fill="white"/>
<path d="M115.8 216.5C116.75 216.5 117.57 216.82 118.26 217.51C118.95 218.19 119.27 219.02 119.27 219.97V223.28H122.39V226.24H101.65V223.28H104.79V211.5H107.83V216.5H115.8ZM108.26 219.47C107.98 219.47 107.84 219.63 107.84 219.97V223.28H116.22V219.97C116.22 219.63 116.08 219.47 115.8 219.47H108.26Z" fill="white"/>
<path d="M129.67 222.93C129.73 223.15 129.87 223.27 130.09 223.27H132.79V226.23H130.09C129.34 226.23 128.7 226.03 128.13 225.65C127.51 226.03 126.84 226.23 126.09 226.23H121.57V223.27H126.09C126.31 223.27 126.49 223.15 126.59 222.93V222.85V216.5H129.65V222.93H129.67ZM127.69 213.03C127.69 214.1 127.17 214.62 126.16 214.62C125.09 214.62 124.57 214.1 124.57 213.03C124.57 212.02 125.09 211.5 126.16 211.5C127.17 211.5 127.69 212.03 127.69 213.03ZM131.54 213.03C131.54 214.1 131.02 214.62 130.01 214.62C128.94 214.62 128.42 214.1 128.42 213.03C128.42 212.02 128.94 211.5 130.01 211.5C131.02 211.5 131.54 212.03 131.54 213.03Z" fill="white"/>
<path d="M138.07 222.77C138.07 223.11 138.25 223.27 138.59 223.27H141.29V226.23H138.59C137.84 226.23 137.18 226.01 136.55 225.54C135.99 226 135.34 226.23 134.59 226.23H131.97V223.27H134.59C134.87 223.27 135.01 223.11 135.01 222.77V211.5H138.05V222.77H138.07Z" fill="white"/>
<path d="M146.58 222.69C146.58 223.7 146.22 224.54 145.49 225.23C144.8 225.9 143.98 226.24 143.03 226.24H140.49V223.28H143.03C143.37 223.28 143.53 223.12 143.53 222.78V211.5H146.57V222.69H146.58Z" fill="white"/>
<path d="M156.21 221.74C155.87 221.74 155.71 221.92 155.71 222.26V223.27H160.35V226.23H152.75V222.26C152.75 221.29 153.09 220.47 153.76 219.8C154.43 219.11 155.25 218.77 156.22 218.77H160.35V221.73H156.21V221.74Z" fill="white"/>
<path d="M164.92 222.77C164.92 223.11 165.08 223.27 165.42 223.27H169.23V226.23H165.42C164.47 226.23 163.65 225.91 162.96 225.22C162.27 224.53 161.95 223.71 161.95 222.76V211.5H164.91V222.77H164.92Z" fill="white"/>
<path d="M174.62 222.93C174.68 223.15 174.82 223.27 175.04 223.27H177.74V226.23H175.04C174.29 226.23 173.65 226.03 173.08 225.65C172.46 226.03 171.79 226.23 171.04 226.23H168.42V223.27H171.04C171.26 223.27 171.44 223.15 171.54 222.93V222.85V216.5H174.6V222.93H174.62ZM174.59 213.03C174.59 214.1 174.07 214.62 173.06 214.62C171.99 214.62 171.47 214.1 171.47 213.03C171.47 212.02 171.99 211.5 173.06 211.5C174.07 211.5 174.59 212.03 174.59 213.03Z" fill="white"/>
<path d="M183.12 222.93C183.18 223.15 183.32 223.27 183.54 223.27H186.24V226.23H183.54C182.79 226.23 182.15 226.03 181.58 225.65C180.96 226.03 180.29 226.23 179.54 226.23H176.92V223.27H179.54C179.76 223.27 179.94 223.15 180.04 222.93V222.85V216.5H183.1V222.93H183.12ZM183.14 229.89C183.14 230.96 182.62 231.48 181.61 231.48C180.54 231.48 180.02 230.96 180.02 229.89C180.02 228.88 180.54 228.36 181.61 228.36C182.62 228.35 183.14 228.88 183.14 229.89Z" fill="white"/>
<path d="M191.53 222.69C191.53 223.7 191.17 224.54 190.44 225.23C189.75 225.9 188.93 226.24 187.98 226.24H185.44V223.28H187.98C188.32 223.28 188.48 223.12 188.48 222.78V211.5H191.52V222.69H191.53Z" fill="white"/>
<path d="M193.14 226.24V211.5H196.18V226.23H193.14V226.24Z" fill="white"/>
<path d="M221.9 222.85C221.9 223.03 221.88 223.17 221.82 223.27H224.94V226.23H218.93C218.77 226.29 218.57 226.31 218.35 226.31H217.85C217 226.31 216.32 225.95 215.81 225.22C215.35 225.95 214.7 226.31 213.85 226.31H213.27C213.09 226.31 212.95 226.29 212.85 226.23V226.73C212.85 227.7 212.51 228.52 211.82 229.19C211.09 229.88 210.25 230.22 209.28 230.22H205.81C204.86 230.22 204.04 229.88 203.35 229.19C202.68 228.52 202.34 227.7 202.34 226.73V219.96H205.38V226.73C205.38 227.07 205.52 227.25 205.8 227.25H209.27C209.61 227.25 209.79 227.07 209.79 226.73V217.26H212.75V222.08L212.83 222.93C212.89 223.15 213.03 223.27 213.25 223.27H213.83C214.11 223.27 214.25 223.11 214.25 222.77V217.27H217.29V222.77C217.29 223.11 217.47 223.27 217.81 223.27H218.31C218.65 223.27 218.81 223.11 218.81 222.77V216.58H221.85V222.85H221.9Z" fill="white"/>
<path d="M232.22 222.93C232.28 223.15 232.42 223.27 232.64 223.27H235.34V226.23H232.64C231.89 226.23 231.25 226.03 230.68 225.65C230.06 226.03 229.39 226.23 228.64 226.23H224.12V223.27H228.64C228.86 223.27 229.04 223.15 229.14 222.93V222.85V216.5H232.2V222.93H232.22ZM230.25 229.89C230.25 230.96 229.73 231.48 228.72 231.48C227.65 231.48 227.13 230.96 227.13 229.89C227.13 228.88 227.65 228.36 228.72 228.36C229.72 228.35 230.25 228.88 230.25 229.89ZM234.1 229.89C234.1 230.96 233.58 231.48 232.57 231.48C231.5 231.48 230.98 230.96 230.98 229.89C230.98 228.88 231.5 228.36 232.57 228.36C233.57 228.35 234.1 228.88 234.1 229.89Z" fill="white"/>
<path d="M249.76 222.77C249.76 223.72 249.42 224.54 248.75 225.23C248.06 225.96 247.24 226.32 246.29 226.32H245.68C244.83 226.32 244.19 225.96 243.75 225.23C243.25 225.96 242.56 226.32 241.71 226.32H241.13C240.95 226.32 240.79 226.3 240.61 226.24H234.52V223.28H237.64V217.27H240.7V222.77C240.7 223.11 240.84 223.27 241.12 223.27H241.7C242.04 223.27 242.2 223.11 242.2 222.77V217.27H245.16V222.77C245.16 223.11 245.32 223.27 245.66 223.27H246.27C246.55 223.27 246.69 223.11 246.69 222.77V216.58H249.73V222.77H249.76Z" fill="white"/>
<path d="M254.27 222.77C254.27 223.11 254.43 223.27 254.77 223.27H258.58V226.23H254.77C253.82 226.23 253 225.91 252.31 225.22C251.62 224.53 251.3 223.71 251.3 222.76V215.14H254.26V222.77H254.27ZM252.92 212.11C252.74 212.11 252.66 212.17 252.66 212.29V212.63H254.35V213.9H251.39V212.29C251.39 211.32 251.89 210.84 252.92 210.84H254.35V212.11H252.92Z" fill="white"/>
<path d="M266.45 222.77C266.45 223.72 266.11 224.54 265.42 225.23C264.75 225.9 263.91 226.24 262.88 226.24H257.78V223.28H262.88C263.22 223.28 263.38 223.14 263.38 222.86V216.51H266.44V222.77H266.45ZM262.13 213.03C262.13 214.1 261.61 214.62 260.6 214.62C259.53 214.62 259.01 214.1 259.01 213.03C259.01 212.02 259.53 211.5 260.6 211.5C261.61 211.5 262.13 212.03 262.13 213.03ZM265.98 213.03C265.98 214.1 265.46 214.62 264.45 214.62C263.38 214.62 262.86 214.1 262.86 213.03C262.86 212.02 263.38 211.5 264.45 211.5C265.46 211.5 265.98 212.03 265.98 213.03Z" fill="white"/>
<path d="M279.05 216.5C280.02 216.5 280.88 216.82 281.59 217.51C282.3 218.18 282.62 219.02 282.62 219.97V223.28H285.74V226.24H272.62V219.97C272.62 219.02 272.94 218.2 273.63 217.51C274.31 216.82 275.14 216.5 276.09 216.5H279.05ZM277.31 213.03C277.31 214.1 276.79 214.62 275.78 214.62C274.71 214.62 274.19 214.1 274.19 213.03C274.19 212.02 274.71 211.5 275.78 211.5C276.79 211.5 277.31 212.03 277.31 213.03ZM276.08 219.55C275.8 219.55 275.66 219.69 275.66 219.97V223.28H279.55V219.97C279.55 219.69 279.39 219.55 279.05 219.55H276.08ZM281.16 213.03C281.16 214.1 280.64 214.62 279.63 214.62C278.56 214.62 278.04 214.1 278.04 213.03C278.04 212.02 278.56 211.5 279.63 211.5C280.64 211.5 281.16 212.03 281.16 213.03Z" fill="white"/>
<path d="M293.05 215.82L296.94 217.01C298.73 217.55 299.64 218.7 299.64 220.4V222.7C299.64 223.65 299.28 224.45 298.63 225.14C297.94 225.87 297.14 226.25 296.17 226.25H284.92V223.29H296.17C296.45 223.29 296.59 223.13 296.59 222.79V220.41C296.59 220.19 296.47 220.05 296.25 219.99L288.05 217.53V214.06L296.94 211.6C297.04 211.6 297.14 211.58 297.2 211.52V214.66L293.05 215.82Z" fill="white"/>
<path d="M309.72 223.27V226.23H306.6V226.73C306.6 227.7 306.26 228.5 305.57 229.19C304.88 229.88 304.08 230.22 303.11 230.22H301.26V227.16H303.11C303.39 227.16 303.53 227.02 303.53 226.74V216.5H306.59V223.27H309.72Z" fill="white"/>
<path d="M324.14 222.77C324.14 223.72 323.8 224.54 323.13 225.23C322.44 225.96 321.62 226.32 320.67 226.32H320.06C319.21 226.32 318.57 225.96 318.13 225.23C317.63 225.96 316.94 226.32 316.09 226.32H315.51C315.33 226.32 315.17 226.3 314.99 226.24H308.9V223.28H312.02V217.27H315.08V222.77C315.08 223.11 315.22 223.27 315.5 223.27H316.08C316.42 223.27 316.58 223.11 316.58 222.77V217.27H319.54V222.77C319.54 223.11 319.7 223.27 320.04 223.27H320.65C320.93 223.27 321.07 223.11 321.07 222.77V216.58H324.11V222.77H324.14ZM317.75 213.06C317.75 214.13 317.23 214.65 316.22 214.65C315.15 214.65 314.63 214.13 314.63 213.06C314.63 212.05 315.15 211.53 316.22 211.53C317.22 211.52 317.75 212.05 317.75 213.06ZM319.66 209.39C319.66 210.46 319.14 210.98 318.13 210.98C317.06 210.98 316.54 210.46 316.54 209.39C316.54 208.38 317.06 207.86 318.13 207.86C319.14 207.85 319.66 208.38 319.66 209.39ZM321.6 213.06C321.6 214.13 321.08 214.65 320.07 214.65C319 214.65 318.48 214.13 318.48 213.06C318.48 212.05 319 211.53 320.07 211.53C321.07 211.52 321.6 212.05 321.6 213.06Z" fill="white"/>
<path d="M6.19001 240.57V249.85H3.66001V240.57H0.290009V238.54H9.56001V240.57H6.19001Z" fill="#BC9D47"/>
<path d="M18.24 244.5V249.85H16.32L16.07 248.61C15.5 249.29 14.51 250.05 13.08 250.05C11.56 250.05 10.43 249.23 10.43 247.71V246.89C10.43 245.59 11.37 244.85 12.91 244.85H15.8V244.48C15.8 243.66 15.51 243.44 14.47 243.44C13.7 243.44 12.35 243.49 11.05 243.56L10.83 241.92C12.01 241.7 13.91 241.53 15.04 241.53C17.14 241.54 18.24 242.22 18.24 244.5ZM13.63 246.31C13.04 246.31 12.84 246.62 12.84 247.08V247.39C12.84 247.96 13.13 248.22 13.78 248.22C14.34 248.22 15.11 247.96 15.81 247.43V246.3H13.63V246.31Z" fill="#BC9D47"/>
<path d="M26.96 241.85L26.79 243.4C25.75 243.38 24.69 243.37 23.68 243.37C22.41 243.37 22.12 243.37 22.12 243.91C22.12 244.41 22.41 244.42 23.19 244.64L25.25 245.2C26.63 245.57 27.26 246.14 27.26 247.57C27.26 249.57 26.16 250.05 23.55 250.05C22.95 250.05 21.48 250.03 19.93 249.77L20.07 248.19C20.66 248.22 21.8 248.22 22.89 248.22C24.55 248.22 24.92 248.14 24.92 247.62C24.92 247.12 24.58 247.08 23.77 246.86L21.74 246.32C20.21 245.92 19.78 245.14 19.78 243.86C19.78 242.17 20.71 241.54 23.23 241.55C24.37 241.54 25.95 241.67 26.96 241.85Z" fill="#BC9D47"/>
<path d="M30.61 238.18C31.09 238.18 31.32 238.43 31.32 238.89V239.77C31.32 240.25 31.09 240.48 30.61 240.48H29.53C29.07 240.48 28.83 240.25 28.83 239.77V238.89C28.83 238.43 29.06 238.18 29.53 238.18H30.61ZM28.88 249.85V241.76H31.29V249.85H28.88Z" fill="#BC9D47"/>
<path d="M40.14 241.85L39.97 243.4C38.93 243.38 37.87 243.37 36.86 243.37C35.59 243.37 35.3 243.37 35.3 243.91C35.3 244.41 35.59 244.42 36.37 244.64L38.43 245.2C39.81 245.57 40.44 246.14 40.44 247.57C40.44 249.57 39.34 250.05 36.73 250.05C36.13 250.05 34.66 250.03 33.11 249.77L33.25 248.19C33.84 248.22 34.98 248.22 36.07 248.22C37.73 248.22 38.1 248.14 38.1 247.62C38.1 247.12 37.76 247.08 36.96 246.86L34.93 246.32C33.4 245.92 32.97 245.14 32.97 243.86C32.97 242.17 33.9 241.54 36.42 241.55C37.56 241.54 39.13 241.67 40.14 241.85Z" fill="#BC9D47"/>
<path d="M51.01 238.54C51.43 238.54 51.75 238.77 51.88 239.19L55.14 249.85H52.6L51.78 246.88H47.88L47.06 249.85H44.51L47.77 239.19C47.89 238.77 48.23 238.54 48.64 238.54H51.01ZM49.61 240.41C49.52 240.77 49.46 241.14 49.36 241.48L48.4 244.95H51.23L50.27 241.48C50.18 241.14 50.1 240.77 50.04 240.41H49.61Z" fill="#BC9D47"/>
<path d="M58.59 247.2C58.59 247.76 58.9 248.02 59.5 248.02H60.15L60.43 249.72C60.03 249.92 59.02 250.05 58.5 250.05C57.08 250.05 56.18 249.25 56.18 247.82V238.37H58.59V247.2Z" fill="#BC9D47"/>
<path d="M73.42 241.36C73.42 242.98 72.85 243.82 71.44 243.94V244.02C73.17 244.16 73.79 245.23 73.79 247.04C73.79 249.36 72.66 249.98 69.95 249.98C67.78 249.98 66.59 249.96 65.17 249.86V238.55C66.45 238.43 67.52 238.41 69.42 238.41C72.38 238.4 73.42 239.02 73.42 241.36ZM69.44 243.17C70.65 243.17 71.03 242.86 71.03 241.7C71.03 240.56 70.61 240.31 69.3 240.29L67.61 240.27V243.16H69.44V243.17ZM67.61 248.1H69.51C70.87 248.1 71.27 247.82 71.27 246.55C71.27 245.17 70.85 244.82 69.44 244.82H67.6V248.1H67.61Z" fill="#BC9D47"/>
<path d="M77.27 238.18C77.75 238.18 77.98 238.43 77.98 238.89V239.77C77.98 240.25 77.75 240.48 77.27 240.48H76.19C75.73 240.48 75.49 240.25 75.49 239.77V238.89C75.49 238.43 75.72 238.18 76.19 238.18H77.27ZM75.54 249.85V241.76H77.95V249.85H75.54Z" fill="#BC9D47"/>
<path d="M87.87 243.78V249.85H85.47V244.54C85.47 243.8 85.27 243.58 84.68 243.58C84.01 243.58 83.38 243.84 82.44 244.32V249.84H80.01V241.75H81.97L82.16 242.96C83.29 242.03 84.47 241.54 85.61 241.54C87.1 241.54 87.87 242.31 87.87 243.78Z" fill="#BC9D47"/>
<path d="M97.22 244.5V249.85H95.3L95.05 248.61C94.48 249.29 93.49 250.05 92.06 250.05C90.54 250.05 89.41 249.23 89.41 247.71V246.89C89.41 245.59 90.35 244.85 91.89 244.85H94.78V244.48C94.78 243.66 94.49 243.44 93.45 243.44C92.68 243.44 91.33 243.49 90.03 243.56L89.81 241.92C90.99 241.7 92.89 241.53 94.02 241.53C96.12 241.54 97.22 242.22 97.22 244.5ZM92.61 246.31C92.02 246.31 91.82 246.62 91.82 247.08V247.39C91.82 247.96 92.11 248.22 92.76 248.22C93.32 248.22 94.09 247.96 94.79 247.43V246.3H92.61V246.31Z" fill="#BC9D47"/>
<path d="M108.64 238.2L108.41 239.81H106.88C106.06 239.81 105.8 240.09 105.8 240.86V241.76H108.03V243.38H105.8V249.85H103.36V243.38H101.95V241.85L103.36 241.76V240.54C103.36 239.02 104.07 238.05 106.02 238.05C106.6 238.04 107.91 238.08 108.64 238.2Z" fill="#BC9D47"/>
<path d="M117.23 245.81C117.23 248.92 116.1 250.06 113.08 250.06C110.05 250.06 108.9 248.91 108.9 245.81C108.9 242.7 110.05 241.54 113.08 241.54C116.1 241.54 117.23 242.7 117.23 245.81ZM111.46 245.81C111.46 247.74 111.8 248.24 113.08 248.24C114.32 248.24 114.69 247.74 114.69 245.81C114.69 243.85 114.32 243.35 113.08 243.35C111.8 243.35 111.46 243.85 111.46 245.81Z" fill="#BC9D47"/>
<path d="M123.79 243.78C123.09 243.78 122.4 243.98 121.31 244.34V249.85H118.88V241.76H120.77L120.97 242.95C122.05 242.02 123.21 241.54 124.25 241.54H124.68L124.43 243.78H123.79Z" fill="#BC9D47"/>
<path d="M138 241.73C138 243.32 137.44 244.35 135.83 244.55V244.63C136.4 244.75 137.11 245.19 137.44 246.33L138.43 249.86H135.78L134.93 246.39C134.74 245.66 134.39 245.45 133.72 245.45L131.96 245.43V249.85H129.5V238.54C130.86 238.4 131.79 238.39 133.82 238.39C136.77 238.39 138 239.14 138 241.73ZM131.96 243.51H133.77C135.09 243.51 135.47 243.14 135.47 241.9C135.47 240.63 135.08 240.29 133.77 240.31L131.96 240.33V243.51Z" fill="#BC9D47"/>
<path d="M147.53 244.36C147.53 245.83 146.82 246.62 145.07 246.62H142.15C142.29 247.84 142.83 248.12 144.07 248.12C144.81 248.12 145.99 248.04 147.09 247.93L147.32 249.43C146.36 249.89 144.94 250.05 143.79 250.05C140.73 250.05 139.57 248.8 139.57 245.81C139.57 242.62 140.76 241.54 143.69 241.54C146.45 241.54 147.5 242.5 147.53 244.36ZM142.1 245.16H144.39C145.04 245.16 145.15 244.77 145.15 244.33C145.15 243.57 144.82 243.31 143.77 243.31C142.55 243.31 142.16 243.63 142.1 245.16Z" fill="#BC9D47"/>
<path d="M156.49 244.5V249.85H154.57L154.32 248.61C153.75 249.29 152.76 250.05 151.33 250.05C149.81 250.05 148.68 249.23 148.68 247.71V246.89C148.68 245.59 149.62 244.85 151.16 244.85H154.05V244.48C154.05 243.66 153.76 243.44 152.72 243.44C151.95 243.44 150.6 243.49 149.3 243.56L149.08 241.92C150.26 241.7 152.16 241.53 153.29 241.53C155.39 241.54 156.49 242.22 156.49 244.5ZM151.88 246.31C151.29 246.31 151.09 246.62 151.09 247.08V247.39C151.09 247.96 151.38 248.22 152.03 248.22C152.59 248.22 153.36 247.96 154.06 247.43V246.3H151.88V246.31Z" fill="#BC9D47"/>
<path d="M160.84 247.2C160.84 247.76 161.15 248.02 161.75 248.02H162.4L162.68 249.72C162.28 249.92 161.27 250.05 160.75 250.05C159.33 250.05 158.43 249.25 158.43 247.82V238.37H160.84V247.2Z" fill="#BC9D47"/>
<path d="M175.06 238.65L174.95 240.51H170.6C170.06 240.51 169.83 240.76 169.83 241.35V243.07H174.35V244.88H169.83V247.06C169.83 247.66 170.06 247.91 170.6 247.91H174.95L175.06 249.75C173.53 249.91 171.56 249.91 169.81 249.91C168.29 249.91 167.32 249.03 167.32 247.64V240.79C167.32 239.4 168.3 238.5 169.81 238.5C171.57 238.48 173.53 238.48 175.06 238.65Z" fill="#BC9D47"/>
<path d="M183.53 241.85L183.36 243.4C182.32 243.38 181.26 243.37 180.25 243.37C178.98 243.37 178.69 243.37 178.69 243.91C178.69 244.41 178.98 244.42 179.76 244.64L181.82 245.2C183.2 245.57 183.83 246.14 183.83 247.57C183.83 249.57 182.73 250.05 180.12 250.05C179.52 250.05 178.05 250.03 176.5 249.77L176.64 248.19C177.23 248.22 178.37 248.22 179.46 248.22C181.12 248.22 181.49 248.14 181.49 247.62C181.49 247.12 181.15 247.08 180.35 246.86L178.32 246.32C176.79 245.92 176.36 245.14 176.36 243.86C176.36 242.17 177.29 241.54 179.81 241.55C180.94 241.54 182.52 241.67 183.53 241.85Z" fill="#BC9D47"/>
<path d="M190.77 241.76V243.38H188.53V247.2C188.53 247.82 188.76 248.02 189.41 248.02H190.45L190.71 249.72C190.11 249.92 189.01 250.05 188.44 250.05C186.97 250.05 186.12 249.2 186.12 247.71V243.38H184.7V241.85L186.12 241.76V239.5H188.53V241.76H190.77Z" fill="#BC9D47"/>
<path d="M199.52 244.5V249.85H197.6L197.35 248.61C196.78 249.29 195.79 250.05 194.36 250.05C192.84 250.05 191.71 249.23 191.71 247.71V246.89C191.71 245.59 192.65 244.85 194.19 244.85H197.08V244.48C197.08 243.66 196.79 243.44 195.75 243.44C194.98 243.44 193.63 243.49 192.33 243.56L192.11 241.92C193.29 241.7 195.19 241.53 196.32 241.53C198.42 241.54 199.52 242.22 199.52 244.5ZM194.91 246.31C194.32 246.31 194.12 246.62 194.12 247.08V247.39C194.12 247.96 194.41 248.22 195.06 248.22C195.62 248.22 196.39 247.96 197.09 247.43V246.3H194.91V246.31Z" fill="#BC9D47"/>
<path d="M206.82 241.76V243.38H204.58V247.2C204.58 247.82 204.81 248.02 205.46 248.02H206.5L206.76 249.72C206.16 249.92 205.06 250.05 204.49 250.05C203.02 250.05 202.17 249.2 202.17 247.71V243.38H200.75V241.85L202.17 241.76V239.5H204.58V241.76H206.82Z" fill="#BC9D47"/>
<path d="M215.8 244.36C215.8 245.83 215.09 246.62 213.34 246.62H210.42C210.56 247.84 211.1 248.12 212.34 248.12C213.08 248.12 214.26 248.04 215.36 247.93L215.59 249.43C214.63 249.89 213.21 250.05 212.06 250.05C209 250.05 207.84 248.8 207.84 245.81C207.84 242.62 209.03 241.54 211.96 241.54C214.71 241.54 215.77 242.5 215.8 244.36ZM210.37 245.16H212.66C213.31 245.16 213.42 244.77 213.42 244.33C213.42 243.57 213.09 243.31 212.04 243.31C210.81 243.31 210.43 243.63 210.37 245.16Z" fill="#BC9D47"/>
<path d="M230.24 244.19C230.24 248.68 228.97 250.01 225.41 250.01C223.71 250.01 222.32 249.93 221.02 249.86V238.55C222.32 238.46 223.7 238.4 225.41 238.4C228.97 238.39 230.24 239.72 230.24 244.19ZM223.5 248.01C224.07 248.01 224.72 248.02 225.4 248.02C227.09 248.02 227.6 247.15 227.6 244.18C227.6 241.21 227.09 240.31 225.4 240.33L223.5 240.35V248.01Z" fill="#BC9D47"/>
<path d="M239.65 244.36C239.65 245.83 238.94 246.62 237.19 246.62H234.27C234.41 247.84 234.95 248.12 236.19 248.12C236.93 248.12 238.11 248.04 239.21 247.93L239.44 249.43C238.48 249.89 237.06 250.05 235.91 250.05C232.85 250.05 231.69 248.8 231.69 245.81C231.69 242.62 232.88 241.54 235.81 241.54C238.56 241.54 239.61 242.5 239.65 244.36ZM234.21 245.16H236.5C237.15 245.16 237.26 244.77 237.26 244.33C237.26 243.57 236.93 243.31 235.88 243.31C234.66 243.31 234.28 243.63 234.21 245.16Z" fill="#BC9D47"/>
<path d="M246.67 249.28C246.55 249.62 246.25 249.85 245.88 249.85H243.78C243.41 249.85 243.11 249.62 242.99 249.28L240.33 241.76H242.91L244.36 246.83C244.5 247.31 244.61 247.79 244.7 248.27H244.92L245.31 246.83L246.76 241.76H249.31L246.67 249.28Z" fill="#BC9D47"/>
<path d="M258.08 244.36C258.08 245.83 257.37 246.62 255.62 246.62H252.7C252.84 247.84 253.38 248.12 254.62 248.12C255.36 248.12 256.54 248.04 257.64 247.93L257.87 249.43C256.91 249.89 255.49 250.05 254.34 250.05C251.28 250.05 250.12 248.8 250.12 245.81C250.12 242.62 251.31 241.54 254.24 241.54C257 241.54 258.05 242.5 258.08 244.36ZM252.65 245.16H254.94C255.59 245.16 255.7 244.77 255.7 244.33C255.7 243.57 255.37 243.31 254.32 243.31C253.1 243.31 252.71 243.63 252.65 245.16Z" fill="#BC9D47"/>
<path d="M262.09 247.2C262.09 247.76 262.4 248.02 263 248.02H263.65L263.93 249.72C263.53 249.92 262.52 250.05 262 250.05C260.58 250.05 259.68 249.25 259.68 247.82V238.37H262.09V247.2Z" fill="#BC9D47"/>
<path d="M273 245.81C273 248.92 271.87 250.06 268.85 250.06C265.82 250.06 264.67 248.91 264.67 245.81C264.67 242.7 265.82 241.54 268.85 241.54C271.87 241.54 273 242.7 273 245.81ZM267.23 245.81C267.23 247.74 267.57 248.24 268.85 248.24C270.09 248.24 270.46 247.74 270.46 245.81C270.46 243.85 270.09 243.35 268.85 243.35C267.57 243.35 267.23 243.85 267.23 245.81Z" fill="#BC9D47"/>
<path d="M282.79 245.87C282.79 249.09 281.75 250.06 279.71 250.06C278.74 250.06 277.76 249.83 277 249.27C277.05 249.83 277.05 250.41 277.05 251V252.95H274.65V241.75H276.61L276.8 242.94C277.47 242.14 278.76 241.55 280 241.55C282.02 241.56 282.79 243.14 282.79 245.87ZM277.05 244.22V247.93C277.7 248.1 278.19 248.26 278.89 248.26C279.93 248.26 280.3 247.9 280.3 245.88C280.3 243.93 279.94 243.47 279.05 243.47C278.34 243.46 277.81 243.74 277.05 244.22Z" fill="#BC9D47"/>
<path d="M296.95 243.78V249.85H294.54V244.54C294.54 243.84 294.35 243.58 293.69 243.58C293.15 243.58 292.78 243.77 291.9 244.31V249.85H289.56V244.54C289.56 243.81 289.3 243.58 288.69 243.58C288.16 243.58 287.79 243.75 286.9 244.29V249.84H284.5V241.75H286.43L286.59 242.94C287.61 242 288.52 241.53 289.68 241.53C290.76 241.53 291.46 241.96 291.75 242.83C292.72 241.95 293.62 241.53 294.71 241.53C296.16 241.54 296.95 242.31 296.95 243.78Z" fill="#BC9D47"/>
<path d="M306.52 244.36C306.52 245.83 305.81 246.62 304.06 246.62H301.14C301.28 247.84 301.82 248.12 303.06 248.12C303.8 248.12 304.98 248.04 306.08 247.93L306.31 249.43C305.35 249.89 303.93 250.05 302.78 250.05C299.72 250.05 298.56 248.8 298.56 245.81C298.56 242.62 299.75 241.54 302.68 241.54C305.44 241.54 306.49 242.5 306.52 244.36ZM301.09 245.16H303.38C304.03 245.16 304.14 244.77 304.14 244.33C304.14 243.57 303.81 243.31 302.76 243.31C301.54 243.31 301.15 243.63 301.09 245.16Z" fill="#BC9D47"/>
<path d="M315.96 243.78V249.85H313.56V244.54C313.56 243.8 313.36 243.58 312.77 243.58C312.1 243.58 311.47 243.84 310.53 244.32V249.84H308.1V241.75H310.06L310.25 242.96C311.38 242.03 312.56 241.54 313.7 241.54C315.19 241.54 315.96 242.31 315.96 243.78Z" fill="#BC9D47"/>
<path d="M323.31 241.76V243.38H321.07V247.2C321.07 247.82 321.3 248.02 321.95 248.02H322.99L323.25 249.72C322.65 249.92 321.55 250.05 320.98 250.05C319.51 250.05 318.66 249.2 318.66 247.71V243.38H317.24V241.85L318.66 241.76V239.5H321.07V241.76H323.31Z" fill="#BC9D47"/>
<path d="M215.506 146.161L203.986 144.179L202.003 155.699L213.524 157.682L215.506 146.161Z" fill="white"/>
<path d="M170.166 123.814L172.71 112.405L161.301 109.861L158.757 121.27L170.166 123.814Z" fill="white"/>
<path d="M173.52 137.1C174.28 138.5 175.12 139.87 176 141.23L173.52 137.1Z" fill="black"/>
<path d="M232.44 126.92C230.27 112.94 222.68 101.77 214.94 90.51C207.13 79.15 198.95 67.94 192.29 55.91C182.84 38.82 184.91 21.9 196.26 6.09C197.48 4.39 198.66 2.66 199.86 0.94L198.57 0C190 10.94 180.85 21.49 173.03 32.95C166.67 42.27 165.66 53.42 169.51 63.97C172.82 73.03 177.57 81.63 182.34 90.07C187.33 98.9 193.39 107.12 198.4 115.93C201.95 122.17 204.16 129.01 202.01 136.57C196.67 125.55 191.5 114.87 186.25 104.03C184.28 108.55 182.22 113.29 180.09 118.16L188.2 131.07L191.44 136.22C191.44 136.22 191.44 136.23 191.45 136.23C191.84 136.93 192.21 137.64 192.56 138.35C192.57 138.37 192.68 138.76 192.81 139.35C192.83 139.52 192.84 139.7 192.86 139.87C192.86 139.86 192.85 139.86 192.85 139.85C192.86 139.89 192.86 139.93 192.87 139.96C192.96 140.99 193.03 141.98 193.08 142.87C192.92 144.48 192.19 145.89 190.19 145.95C185.68 136.64 181.26 127.51 176.79 118.28C174.83 122.78 172.77 127.49 170.66 132.34L173.29 136.71C173.29 136.7 173.29 136.68 173.29 136.67C173.37 136.81 173.44 136.96 173.52 137.1L176 141.23C178.69 145.36 181.72 149.38 183.67 153.88C183.93 154.78 183.94 156.56 180.85 158.03C180.58 157.83 180.33 157.63 180.08 157.42C178.03 154.15 175.86 150.94 173.66 147.73C165.89 136.34 157.74 125.11 151.13 113.05C143.22 98.63 143.48 84.35 150.58 70.78C142.59 75.15 139.69 83.44 138.73 87.38C135.03 104.1 140.6 118.87 149.84 132.72C157.31 143.91 165.38 154.71 172.83 165.9C174.23 168.98 179.46 169.84 179.46 169.84C180.28 169.79 181.03 169.64 181.72 169.42V169.43C181.73 169.43 181.74 169.42 181.75 169.41C182.98 169.01 184.01 168.37 184.88 167.63C188.01 165.42 190.94 162.05 193.6 158.14C193.62 158.11 193.63 158.09 193.65 158.06C194.08 157.42 194.51 156.77 194.92 156.11C201.95 145.23 205.51 137.26 207.32 131.84C207.45 131.52 207.58 131.2 207.7 130.88C208.29 129.29 208.68 127.5 208.91 125.65C209.22 123.75 209.15 122.83 209.15 122.83L209.13 122.81C209.23 119.26 208.71 115.66 207.5 112.73C203.53 103.08 197 94.52 192.11 85.2C186.49 74.49 180.65 63.77 176.48 52.47C173.3 43.87 175.76 34.9 180.68 26.84C175.42 45 181.16 60.81 191.07 75.56C199.79 88.53 209.34 100.97 217.76 114.12C224.56 124.74 228.86 136.27 224.37 149.33C219.94 162.23 208.78 171.99 196.02 175.45C194.74 175.74 193.46 175.99 192.15 176.14C188.73 176.53 185.22 176.42 181.87 175.58C180.19 175.16 178.56 174.56 176.99 173.8C175.44 173.02 173.97 172.06 172.59 170.99C169.88 168.77 167.59 166.02 165.76 162.98C167.41 166.11 169.54 169.03 172.18 171.47C173.53 172.66 174.98 173.73 176.55 174.64C178.13 175.52 179.8 176.25 181.53 176.8C185 177.9 188.69 178.23 192.32 178.04C192.93 178.01 193.54 177.93 194.15 177.87C195.8 177.89 197.42 177.79 198.99 177.46C222.18 172.57 236.12 150.6 232.44 126.92Z" fill="#BC9D47"/>
<path d="M162.6 161.56C162.62 160.95 161.83 159.74 161.59 159.33C160.92 158.15 160.13 157.01 159.31 155.93C159.11 155.67 157.93 154.27 157.13 153.62C157.11 153.6 157.09 153.58 157.08 153.56C157.06 153.54 156.04 152.39 155.73 152.61C155.42 152.83 156.15 154.18 156.16 154.21C156.2 154.3 156.26 154.39 156.31 154.48C156.17 156.19 155.98 157.75 154.72 159.11C154.09 159.79 153.42 160.45 152.74 161.11C152.31 160.15 151.72 159.05 151.66 158.96C150.62 157.33 149.25 154.9 147.46 153.93C144.23 152.19 139.27 152.09 136.66 155.08C135.02 156.96 135.91 159.07 137.01 160.99C138.65 163.88 140.71 166.43 143.01 168.81C145.54 171.44 148.12 174.41 151.64 174.22C151.16 175.18 150.64 176.12 150.08 177.05C148.26 180.07 145.66 182.11 146.65 185.89C147.24 188.13 148.27 190.12 149.56 192.05C150.87 194.01 152.42 196.52 154.62 197.55C155.56 197.99 153.41 194.14 153.3 193.95C153.09 193.63 152.86 193.25 152.62 192.86C152.47 190.22 154.73 188.13 156.17 185.76C158.17 182.46 159.65 178.87 160.94 175.23C162.04 172.11 163.28 168.75 163.35 165.4C163.35 164.08 163.07 162.8 162.6 161.56ZM150.67 163.01C148.43 165.04 144.98 166.57 142.25 164.65C142.34 164.35 142.47 164.06 142.72 163.77C143.2 163.22 143.81 162.8 144.44 162.46C146.73 161.21 149.37 161.13 151.75 162.01C151.4 162.35 151.04 162.69 150.67 163.01Z" fill="#BC9D47"/>
<path d="M128.25 63.31L127.25 62.13C126.53 61.28 126.63 60 127.49 59.27L148.61 41.39C149.46 40.67 150.74 40.77 151.47 41.63L152.47 42.81C153.19 43.66 153.09 44.94 152.23 45.67L131.11 63.55C130.25 64.27 128.97 64.16 128.25 63.31Z" fill="white"/>
<path d="M124.83 77.5802L124.27 76.9202C123.42 75.9202 123.55 74.4302 124.55 73.5802L136.23 63.6902C137.23 62.8402 138.72 62.9702 139.57 63.9702L140.13 64.6302C140.98 65.6302 140.85 67.1202 139.85 67.9702L128.17 77.8602C127.17 78.7002 125.68 78.5802 124.83 77.5802Z" fill="white"/>
<path d="M162.88 12.8001C161.09 11.5501 158.76 11.7801 157.24 13.2101L120.09 48.5401V36.5201C120.11 36.3701 120.13 36.2301 120.13 36.0801C120.13 34.1801 118.59 32.6401 116.69 32.6401C114.81 32.6401 113.3 34.1401 113.25 36.0001H113.24V55.0501L90.79 76.4001C90.72 76.4601 90.72 76.5701 90.78 76.6401L95.26 81.3501C95.32 81.4201 95.43 81.4201 95.5 81.3601L113.24 64.4901V164.85V170.02C113.84 174.92 116.4 181.95 125.79 184.81C126.73 185.03 127.7 185.17 128.71 185.19C128.84 185.19 128.97 185.2 129.1 185.2C133.62 185.2 137.77 183.06 141.44 178.85L136.28 174.36C135.04 175.78 133.8 176.8 132.54 177.46C122.22 178.69 120.37 171.5 120.1 167.74V64.3301C120.82 57.6601 125.52 52.8301 125.53 52.8201L157.64 22.2801C157.75 22.1801 157.93 22.2501 157.93 22.4001V95.8101C157.93 95.8101 157.83 96.7601 157.93 98.0401C158.15 100.88 159.35 105.38 164.77 104.89V16.6501C164.76 15.1401 164.11 13.6601 162.88 12.8001Z" fill="white"/>
</svg>
